<?xml version="1.0" standalone="no"?>
<!DOCTYPE svg PUBLIC "-//W3C//DTD SVG 1.1//EN" "http://www.w3.org/Graphics/SVG/1.1/DTD/svg11.dtd" >
<svg xmlns="http://www.w3.org/2000/svg">
<metadata>Generated by IcoMoon</metadata>
<defs>
<font id="icomoon" horiz-adv-x="1024">
<font-face units-per-em="1024" ascent="960" descent="-64" />
<missing-glyph horiz-adv-x="1024" />
<glyph unicode="&#x20;" horiz-adv-x="512" d="" />
<glyph unicode="&#xe900;" glyph-name="arrows_bottom_chevron_direction_move_icon" d="M512 288c-0.055 0-0.12-0.001-0.185-0.001-8.791 0-16.753 3.545-22.537 9.283l-255.998 255.998c-5.815 5.815-9.411 13.847-9.411 22.72 0 17.745 14.386 32.131 32.131 32.131 8.873 0 16.905-3.596 22.72-9.411v0l233.28-233.6 233.28 233.6c5.815 5.815 13.847 9.411 22.72 9.411 17.745 0 32.131-14.386 32.131-32.131 0-8.873-3.596-16.905-9.411-22.72l-256-256c-5.782-5.736-13.744-9.281-22.535-9.281-0.065 0-0.13 0-0.195 0.001h0.010z" />
<glyph unicode="&#xe901;" glyph-name="arrow_chevron_direction_down_move_icon" d="M768 288c-0.055 0-0.12-0.001-0.185-0.001-8.791 0-16.753 3.545-22.537 9.283l0.002-0.002-233.28 233.6-233.28-233.6c-5.815-5.815-13.847-9.411-22.72-9.411-17.745 0-32.131 14.386-32.131 32.131 0 8.873 3.596 16.905 9.411 22.72l256 256c5.8 5.846 13.837 9.466 22.72 9.466s16.92-3.619 22.718-9.463l256.002-256.002c5.846-5.8 9.466-13.837 9.466-22.72s-3.619-16.92-9.463-22.718l-0.002-0.002c-5.782-5.736-13.744-9.281-22.535-9.281-0.065 0-0.13 0-0.195 0.001h0.010z" />
<glyph unicode="&#xe902;" glyph-name="arrows_chevron_direction_left_move_icon" d="M384 160c-0.055 0-0.12-0.001-0.185-0.001-8.791 0-16.753 3.545-22.537 9.283l0.002-0.002c-5.846 5.8-9.466 13.837-9.466 22.72s3.619 16.92 9.463 22.718l0.002 0.002 233.6 233.28-233.6 233.28c-5.815 5.815-9.411 13.847-9.411 22.72 0 17.745 14.386 32.131 32.131 32.131 8.873 0 16.905-3.596 22.72-9.411l256-256c5.846-5.8 9.466-13.837 9.466-22.72s-3.619-16.92-9.463-22.718l-256.002-256.002c-5.782-5.736-13.744-9.281-22.535-9.281-0.065 0-0.13 0-0.195 0.001h0.010z" />
<glyph unicode="&#xe903;" glyph-name="arrow_back_chevron_direction_left_icon" d="M640 160c-0.055 0-0.12-0.001-0.185-0.001-8.791 0-16.753 3.545-22.537 9.283l-255.998 255.998c-5.846 5.8-9.466 13.837-9.466 22.72s3.619 16.92 9.463 22.718l256.002 256.002c5.815 5.815 13.847 9.411 22.72 9.411 17.745 0 32.131-14.386 32.131-32.131 0-8.873-3.596-16.905-9.411-22.72v0l-233.6-233.28 233.6-233.28c5.846-5.8 9.466-13.837 9.466-22.72s-3.619-16.92-9.463-22.718l-0.002-0.002c-5.782-5.736-13.744-9.281-22.535-9.281-0.065 0-0.13 0-0.195 0.001h0.010z" />
<glyph unicode="&#xe904;" glyph-name="ballroom" horiz-adv-x="1126" d="M722.703 959.209c-11.93-2.207-20.101-7.517-20.101-12.816 0-2.207 6.41-17.241 14.136-33.585 86.17-179.627 142.73-410.528 150.682-616.007 1.326-34.468 1.992-38.661 5.97-42.419 7.516-6.851 28.283-3.978 37.11 5.294 4.429 4.644 4.644 6.415 3.313 35.794-3.758 86.17-18.78 201.948-36.68 283.256-23.424 106.273-67.835 234.43-125.716 363.242-7.276 16.356-13.24 19.896-28.713 17.241zM927.068 893.763c-12.37-22.54-12.815-23.861-8.842-26.516 72.919-50.16 114.012-102.296 137.871-174.765 11.494-35.574 14.367-54.791 14.367-98.767 0-56.344-8.172-92.584-31.375-139.858-5.75-11.929-10.829-22.092-11.264-22.978-0.44-0.886 10.158-7.066 23.639-13.916l24.52-12.165 11.264 22.323c52.367 104.515 52.147 229.12-0.666 334.301-30.715 61.642-83.297 118.87-138.757 151.352l-7.951 4.414-12.805-23.425zM677.156 899.555c-32.481-32.919-90.813-83.078-138.317-118.434-102.076-76.009-216.532-139.639-329.874-183.167-16.793-6.402-30.93-12.149-31.378-12.597-1.552-1.551 3.54-66.285 7.069-88.595 6.862-44.861 22.103-92.364 45.746-142.96 5.299-11.715 10.827-21.873 12.149-22.758 1.103-0.666 18.999 0.666 39.55 3.092 146.042 16.573 305.358 7.736 454.493-25.631 30.93-6.851 94.121-23.864 105.836-28.508 4.193-1.766 4.193 6.851-0.886 85.069-10.158 161.959-50.145 325.242-116.879 478.364-11.264 25.413-32.481 69.596-33.807 69.596-0.215 0-6.4-5.965-13.701-13.471zM883.779 814.288c-5.309-9.505-11.264-20.333-13.481-24.080l-4.198-6.85 9.508-6.184c13.481-9.057 39.987-35.125 52.362-52.148 14.807-19.666 29.829-51.7 36.68-78.216 5.079-19.218 5.965-26.516 5.965-55.24s-0.886-36.010-5.965-55.24c-3.092-12.149-10.163-31.378-15.688-42.642l-9.728-20.333 23.864-12.149c19.215-9.506 24.53-11.494 26.516-9.057 4.193 5.080 17.459 35.792 23.204 53.688 16.128 51.7 17.679 103.181 4.644 155.766-16.788 66.722-61.42 129.261-118.651 166.156l-5.745 3.759-9.288-17.229zM130.583 570.295c-3.092-1.104-17.011-5.299-30.93-9.057-33.803-8.839-48.826-16.793-66.722-34.689-21.436-21.655-32.93-48.608-32.93-78.216 0-14.802 11.494-62.31 18.999-77.998 15.023-31.596 49.93-56.125 87.273-60.984 18.344-2.427 20.103-2.207 57.446 5.965 21.207 4.644 38.666 8.617 38.884 8.837 0.437 0.22-4.643 12.15-11.264 26.737-29.608 66.063-44.849 127.707-49.044 197.096-1.551 25.62-1.988 26.287-11.712 22.31zM394.412 312.714c-47.068-2.642-103.847-12.595-116.663-20.101-12.816-7.291-10.827-12.37 12.597-35.128 20.551-19.881 36.24-40.218 42.206-54.574 1.77-3.758 5.965-21.873 9.724-40.212 16.356-80.876 44.849-144.067 78.883-175.217 21.873-20.101 37.344-23.859 70.044-16.794 35.794 7.521 58.998 28.058 58.998 52.147 0 5.53-3.758 18.565-9.723 33.587-17.459 43.53-20.106 57.011-19.886 98.77 0.22 32.916 0.666 38.446 6.185 56.34 13.916 47.288 17.009 61.645 16.343 75.561-0.435 7.516-1.541 14.356-2.427 15.242-2.652 2.652-34.019 7.286-65.18 9.723-28.286 1.976-55.021 2.196-81.101 0.655z" />
<glyph unicode="&#xe905;" glyph-name="bell" horiz-adv-x="910" d="M455.115 960c-179.616 0-303.405-123.789-303.405-303.406 0-24.525 0-50.567 0-101.135s-8.192-77.873-36.358-101.137c-3.186-2.628-16.536-14.108-20.531-17.393-63.968-52.895-95.37-102.449-94.814-184.878 0.405-54.511 45.157-101.691 101.135-101.133h211.928c0 0-9.658-30.898-9.658-50.567 0-83.794 67.912-151.704 151.703-151.704s151.704 67.91 151.704 151.704c0 19.668-9.254 50.567-9.254 50.567h211.52c55.827-0.152 101.088 46.319 101.137 101.133 0.102 81.821-31.657 132.236-94.815 184.878-4.145 3.489-18.811 14.662-22.096 17.393-27.561 22.96-34.793 50.57-34.793 101.137 0 63.209 0 101.135 0 101.135 0 179.616-123.786 303.406-303.404 303.406zM455.115 150.919c27.913 0 50.567-22.653 50.567-50.567s-22.653-50.57-50.567-50.57c-27.913 0-50.567 22.657-50.567 50.57s22.653 50.567 50.567 50.567z" />
<glyph unicode="&#xe906;" d="M220.68 448c0 33.256 5.52 65.144 15.384 95.048l-172.56 131.768c-33.632-68.28-52.576-145.224-52.576-226.816 0-81.528 18.928-158.416 52.504-226.656l172.464 132.024c-9.768 29.768-15.216 61.536-15.216 94.632z" />
<glyph unicode="&#xe907;" glyph-name="calender" d="M341.333 714.667c-17.493 0-32 14.507-32 32v128c0 17.493 14.507 32 32 32s32-14.507 32-32v-128c0-17.493-14.507-32-32-32zM682.667 714.667c-17.493 0-32 14.507-32 32v128c0 17.493 14.507 32 32 32s32-14.507 32-32v-128c0-17.493-14.507-32-32-32zM874.667 540.111h-725.333c-17.493 0-32 14.507-32 32s14.507 32 32 32h725.333c17.493 0 32-14.507 32-32s-14.507-32-32-32zM682.667-10.667h-341.333c-155.733 0-245.333 89.6-245.333 245.333v362.667c0 155.733 89.6 245.333 245.333 245.333h341.333c155.733 0 245.333-89.6 245.333-245.333v-362.667c0-155.733-89.6-245.333-245.333-245.333zM341.333 778.667c-122.027 0-181.333-59.307-181.333-181.333v-362.667c0-122.027 59.307-181.333 181.333-181.333h341.333c122.027 0 181.333 59.307 181.333 181.333v362.667c0 122.027-59.307 181.333-181.333 181.333h-341.333zM362.667 341.333c-5.547 0-11.093 1.28-16.213 3.413s-9.813 5.12-14.079 8.96c-3.84 4.267-6.828 8.96-8.961 14.080s-3.413 10.667-3.413 16.213c0 11.093 4.694 22.187 12.374 30.293 4.267 3.84 8.959 6.827 14.079 8.96 7.68 3.413 16.214 4.267 24.747 2.56 2.56-0.427 5.119-1.28 7.679-2.56 2.56-0.853 5.12-2.133 7.68-3.84 2.133-1.707 4.266-3.413 6.399-5.12 1.707-2.133 3.84-4.267 5.12-6.4 1.707-2.56 2.988-5.12 3.841-7.68 1.28-2.56 2.133-5.12 2.56-7.68 0.427-2.987 0.853-5.547 0.853-8.533 0-11.093-4.694-22.187-12.374-30.293-8.107-7.68-19.199-12.373-30.293-12.373zM512 341.379c-11.093 0-22.187 4.693-30.293 12.373-1.707 2.133-3.413 4.267-5.12 6.4-1.707 2.56-2.987 5.12-3.84 7.68-1.28 2.56-2.133 5.12-2.56 7.68-0.427 2.987-0.853 5.547-0.853 8.533 0 5.547 1.28 11.095 3.413 16.215s5.12 9.813 8.96 14.080c11.947 11.947 31.147 15.787 46.507 8.96 5.547-2.133 9.813-5.12 14.080-8.96 7.68-8.107 12.373-19.2 12.373-30.295 0-2.987-0.427-5.547-0.853-8.533-0.427-2.56-1.28-5.12-2.56-7.68-0.853-2.56-2.133-5.12-3.84-7.68-1.707-2.133-3.413-4.267-5.12-6.4-4.267-3.84-8.533-6.827-14.080-8.96-5.12-2.133-10.667-3.413-16.213-3.413zM362.667 192.046c-5.547 0-11.093 1.28-16.213 3.413s-9.813 5.12-14.079 8.96c-3.84 4.267-6.828 8.533-8.961 14.080-2.133 5.12-3.413 10.667-3.413 16.213 0 11.093 4.694 22.187 12.374 30.293 4.267 3.84 8.959 6.827 14.079 8.96 15.787 6.827 34.559 2.987 46.506-8.96 1.707-2.133 3.84-4.267 5.12-6.4 1.707-2.56 2.988-5.12 3.841-7.68 1.28-2.56 2.133-5.12 2.56-8.107 0.427-2.56 0.853-5.547 0.853-8.107 0-11.093-4.694-22.187-12.374-30.293-8.107-7.68-19.199-12.373-30.293-12.373z" />
<glyph unicode="&#xe908;" d="M523.656 750.544c72.248 0 137.504-25.6 188.776-67.488l149.152 148.944c-90.888 79.128-207.416 128-337.928 128-202.624 0-376.768-115.872-460.152-285.184l172.552-131.768c39.76 120.688 153.096 207.496 287.6 207.496z" />
<glyph unicode="&#xe909;" glyph-name="checkdb" horiz-adv-x="1792" d="M1142.221 960c-21.845 0-41.984-9.985-58.624-26.625l-746.672-744.021c-22.016-22.016-44.118-20.564-61.356 5.292l-120.064 178.688c-26.113 39.168-78.165 50.176-117.248 23.979-39.168-26.112-50.176-78.080-24.064-117.333l119.978-178.603c76.972-115.541 227.33-130.219 325.378-32.085l744.026 744.021c33.28 33.365 33.28 86.698 0 120.063-16.64 16.64-39.509 26.625-61.355 26.625zM1622.221 960c-21.845 0-44.715-7.339-61.355-23.979 0 0-882.862-880.554-893.358-888.063 80.896-59.477 191.056-57.088 269.401 21.333l746.667 744.021c33.28 33.365 33.28 89.343 0 122.709-16.64 16.64-39.509 23.979-61.355 23.979z" />
<glyph unicode="&#xe90a;" glyph-name="clock" d="M512-10.667c-253.013 0-458.667 205.653-458.667 458.667s205.653 458.667 458.667 458.667c253.013 0 458.667-205.653 458.667-458.667s-205.653-458.667-458.667-458.667zM512 842.667c-217.6 0-394.667-177.067-394.667-394.667s177.067-394.667 394.667-394.667c217.6 0 394.667 177.067 394.667 394.667s-177.067 394.667-394.667 394.667zM670.322 280.303c-5.547 0-11.093 1.28-16.213 4.693l-132.268 78.933c-32.853 19.627-57.173 62.72-57.173 100.693v174.933c0 17.493 14.507 32 32 32s32-14.507 32-32v-174.933c0-15.36 12.8-37.974 26.027-45.654l132.268-78.933c15.36-8.96 20.053-28.587 11.093-43.947-6.4-10.24-17.067-15.787-27.733-15.787z" />
<glyph unicode="&#xe90b;" glyph-name="close" d="M176.98-64c-44.985 0-89.97 16.563-125.485 52.058-68.661 68.621-68.661 182.202 0 250.822l670.040 669.654c68.659 68.622 182.304 68.622 250.97 0 68.659-68.622 68.659-182.202 0-250.824l-670.041-669.652c-35.514-35.494-80.499-52.058-125.484-52.058zM847.021-64c-44.986 0-89.971 16.563-125.485 52.058l-670.040 669.652c-68.661 68.622-68.661 182.203 0 250.824s182.308 68.622 250.969 0l670.041-669.654c68.659-68.621 68.659-182.202 0-250.822-35.514-35.494-80.499-52.058-125.485-52.058z" />
<glyph unicode="&#xe90c;" glyph-name="competitor" d="M179.542 960c-99.555 0-179.542-79.957-179.542-179.552v-161.78h1024v161.78c0 99.595-79.985 179.552-179.54 179.552h-664.919zM170.666 846.222c31.403 0 56.889-25.469 56.889-56.889s-25.486-56.889-56.889-56.889c-31.403 0-56.889 25.469-56.889 56.889s25.486 56.889 56.889 56.889zM341.333 846.222c31.403 0 56.889-25.469 56.889-56.889s-25.486-56.889-56.889-56.889c-31.403 0-56.889 25.469-56.889 56.889s25.486 56.889 56.889 56.889zM0 504.89v-389.35c0-99.554 79.986-179.534 179.542-179.534h664.919c99.554 0 179.54 79.926 179.54 179.534v389.35h-1024z" />
<glyph unicode="&#xe90d;" glyph-name="dashboard" d="M665.6 960h-307.2c-256 0-358.4-102.4-358.4-358.4v-307.2c0-193.536 58.368-299.52 197.632-338.944 11.264 133.12 147.968 238.080 314.368 238.080s303.104-104.96 314.368-238.080c139.264 39.424 197.632 145.408 197.632 338.944v307.2c0 256-102.4 358.4-358.4 358.4zM512 336.896c-101.376 0-183.296 82.432-183.296 183.807s81.92 183.297 183.296 183.297 183.296-81.921 183.296-183.297c0-101.375-81.92-183.807-183.296-183.807z" />
<glyph unicode="&#xe90e;" d="M523.656 145.456c-134.496 0-247.832 86.808-287.592 207.496l-172.56-131.744c83.384-169.336 257.528-285.208 460.152-285.208 125.056 0 244.456 44.408 334.064 127.608l-163.792 126.624c-46.216-29.112-104.416-44.776-170.272-44.776z" />
<glyph unicode="&#xe90f;" glyph-name="eye_slash_icon" horiz-adv-x="1280" d="M1261.6 21.8l-207 162.22c62.7 63.88 115.58 141.56 154.42 228.2 3.812 8.86 6.938 24.14 6.938 34.060 0 9.954-3.124 25.2-6.938 34.060-108.5 246.8-323.2 412.2-569 412.2-125.34 0-242.4-43.9-341.6-119.24l-220.8 176.468c-8.8 6.874-19.24 10.232-29.56 10.232-14.24 0-28.382-6.316-37.818-18.378-16.376-20.88-12.74-51.060 8.136-67.4l1182.2-926.2c21-16.406 51.14-12.666 67.38 8.146 18.242 19.032 14.442 49.232-6.358 65.632zM788.8 392.4l-163.3 126.2c6.7 18.8 12.7 37 12.7 57.4 0 10.96-1.749 21.46-4.366 31.56 3.366 0.040 4.766 0.44 6.166 0.44 88.22 0 160-71.78 160-160.1 0-19.7-4.6-38.1-11.2-55.5zM866.4 331.6c18.4 34.8 29.6 74 29.6 116.2 0 141.4-114.6 256.2-256 256.2-64.4 0-122.6-24.4-167.4-63.8l-96 75.2c79.4 54.54 169.6 84.6 263.4 84.6 198.96 0 382.4-135 479.2-350.2-36.12-80.76-84.82-148.86-141.22-203.8l-111.58 85.6zM640 192c26.84 0 52.32 5.286 76.62 12.954l-111.020 87.046c-47.4 10.4-86.6 42.2-108 84.6l-112 87.8c-0.4-5.6-1.6-10.8-1.6-16.4 0-141.4 114.6-256 256-256zM640 96c-198.96 0-382.4 135-479.2 350.2 21.66 48.44 48.18 92.060 77.62 131.72l-75.86 61.28c-35.54-47.48-66.54-100.080-91.62-157.18-3.82-8.82-8.74-24.020-8.74-34.020 0-9.954 3.124-25.2 6.938-34.060 108.5-246.8 323.2-412.2 569-412.2 90.92 0 177.54 22.98 256.2 64.28l-85.74 67.18c-52.598-24-109.598-37.2-168.598-37.2z" />
<glyph unicode="&#xe910;" glyph-name="eye_view_icon" horiz-adv-x="1152" d="M1145 483.8c-108.4 245.2-323.2 412.2-569 412.2s-460.62-167.2-569.062-412.2c-3.812-10.6-6.938-25.8-6.938-35.8 0-9.954 3.124-25.2 6.938-34.060 108.502-246.94 323.262-413.94 569.062-413.94s460.6 167.16 569 412.2c3.8 10.6 7 27.6 7 35.8 0 10-3.2 25.2-7 35.8zM576 96c-198.96 0-382.4 135-479.2 350.2 97.22 219 280.4 353.8 479.2 353.8 198.96 0 382.4-135 479.2-350.2-99-219-280.4-353.8-479.2-353.8zM576 704c-141.4 0-256-114.6-256-256s114.66-256 256-256c141.28 0 256 114.64 256 255.8 0 141.4-114.6 256.2-256 256.2zM576 288c-88.22 0-160 71.78-160 160 0 1.496 0.398 2.882 0.441 4.368 10.159-2.568 20.559-4.368 31.559-4.368 70.7 0 128 57.3 128 128 0 10.96-1.75 21.44-4.368 31.56 1.568 0.040 2.968 0.44 4.368 0.44 88.22 0 160-71.78 160-160.1 0-88.1-71.8-159.9-160-159.9z" />
<glyph unicode="&#xe911;" d="M1013.072 448c0 30.256-4.664 62.84-11.656 93.088h-477.76v-197.816h275.008c-13.752-67.448-51.176-119.296-104.736-153.040l163.792-126.624c94.128 87.36 155.352 217.504 155.352 384.392z" />
<glyph unicode="&#xe912;" glyph-name="menu" horiz-adv-x="1210" d="M1144.657 565.881h-1098.871c-25.030 0-45.786 20.757-45.786 45.787s20.756 45.787 45.786 45.787h1098.871c25.030 0 45.787-20.757 45.787-45.787s-20.757-45.787-45.787-45.787zM961.503 260.655h-732.581c-25.030 0-45.786 20.757-45.786 45.787s20.756 45.787 45.786 45.787h732.581c25.030 0 45.787-20.757 45.787-45.787s-20.757-45.787-45.787-45.787zM717.321-44.618h-244.194c-25.030 0-45.787 20.757-45.787 45.787s20.757 45.787 45.787 45.787h244.194c25.030 0 45.787-20.757 45.787-45.787s-20.757-45.787-45.787-45.787zM717.321 868.427h-244.194c-25.030 0-45.787 20.756-45.787 45.786s20.757 45.786 45.787 45.786h244.194c25.030 0 45.787-20.756 45.787-45.786s-20.757-45.786-45.787-45.786z" />
<glyph unicode="&#xe913;" glyph-name="twitter_bird_icon-1" d="M954.352 687.893c-32.711-14.54-67.914-24.348-104.851-28.737 37.714 22.578 66.631 58.341 80.268 101.004-35.275-20.934-74.326-36.124-115.923-44.325-33.289 35.474-80.738 57.655-133.245 57.655-100.805 0-182.537-81.731-182.537-182.555 0-14.287 1.608-28.213 4.732-41.597-151.722 7.622-286.25 80.286-376.29 190.737-15.714-26.949-24.709-58.305-24.709-91.792 0-63.326 32.223-119.21 81.208-151.939-29.911 0.957-58.070 9.176-82.689 22.849-0.018-0.759-0.018-1.535-0.018-2.312 0-88.433 62.929-162.199 146.448-178.996-15.317-4.154-31.446-6.394-48.1-6.394-11.777 0-23.21 1.138-34.354 3.287 23.246-72.52 90.654-125.316 170.525-126.779-62.477-48.967-141.174-78.155-226.717-78.155-14.721 0-29.261 0.867-43.548 2.565 80.81-51.82 176.757-82.020 279.838-82.020 335.794 0 519.396 278.158 519.396 519.396 0 7.911-0.163 15.804-0.506 23.643 35.655 25.684 66.613 57.853 91.070 94.465z" />
<glyph unicode="&#xe914;" glyph-name="rresult" horiz-adv-x="1186" d="M0 685.903c0.101 151.423 122.827 274.097 274.199 274.097 141.908 0 257.204-108.123 271.399-246.214h558.727c44.727 0.050 81.359-36.585 81.359-81.308v-587.929c0-44.83-36.632-81.359-81.359-81.359h-587.931c-44.827 0-81.563 36.53-81.563 81.359v420.123c-33.632-24.423-72.913-41.314-115.603-48.39l-1.17-63.806 39.18-13.123v-350.521c0 0-37.651-38.669-87.007-35.312-49.254 3.309-78.867 35.209-78.867 35.209l-0.052 350.574 36.583 9.006 1.069 67.977c-129.796 21.773-228.863 133.761-228.964 269.614zM274.25 474.797c116.469 0 211.004 94.538 211.004 211.157s-94.434 211.004-211.106 211.004c-116.465 0.153-211.004-94.333-211.106-211.157 0.099-116.518 94.435-211.004 211.207-211.004zM575.262 124.378h470.194v53.528h-470.194v-53.528zM575.262 311.673h470.194v53.631h-470.194v-53.631zM575.262 498.913h470.194v53.63h-470.194v-53.63z" />
<glyph unicode="&#xe915;" glyph-name="setting" d="M833.065 514.134h-93.865c-113.577 0-176 62.421-176 176v93.866c0 113.578 62.423 176 176 176h93.865c113.582 0 176-62.422 176-176v-93.866c0-113.579-62.418-176-176-176zM739.2 889.6c-74.153 0-105.6-31.446-105.6-105.6v-93.866c0-74.155 31.447-105.6 105.6-105.6h93.865c74.158 0 105.6 31.445 105.6 105.6v93.866c0 74.154-31.442 105.6-105.6 105.6h-93.865zM269.866-49.065h-93.866c-113.578 0-176 62.418-176 176v93.865c0 113.577 62.422 176 176 176h93.866c113.579 0 176-62.423 176-176v-93.865c0-113.582-62.421-176-176-176zM176 326.4c-74.154 0-105.6-31.447-105.6-105.6v-93.865c0-74.158 31.446-105.6 105.6-105.6h93.866c74.155 0 105.6 31.442 105.6 105.6v93.865c0 74.153-31.445 105.6-105.6 105.6h-93.866zM222.934 514.134c-122.966 0-222.934 99.968-222.934 222.933s99.968 222.934 222.934 222.934c122.965 0 222.933-99.968 222.933-222.934s-99.968-222.933-222.933-222.933zM222.934 889.6c-84.011 0-152.534-68.522-152.534-152.534s68.522-152.533 152.534-152.533c84.010 0 152.533 68.522 152.533 152.533s-68.522 152.534-152.533 152.534zM786.135-49.065c-122.967 0-222.935 99.968-222.935 222.93 0 122.967 99.968 222.935 222.935 222.935 122.962 0 222.93-99.968 222.93-222.935 0-122.962-99.968-222.93-222.93-222.93zM786.135 326.4c-84.014 0-152.535-68.521-152.535-152.535 0-84.009 68.521-152.53 152.535-152.53 84.009 0 152.53 68.521 152.53 152.53 0 84.014-68.521 152.535-152.53 152.535zM153.6 396.8h153.6c84.831 0 153.6-68.769 153.6-153.6v-153.6c0-84.831-68.769-153.6-153.6-153.6h-153.6c-84.831 0-153.6 68.769-153.6 153.6v153.6c0 84.831 68.769 153.6 153.6 153.6zM716.8 960h153.6c84.831 0 153.6-68.769 153.6-153.6v-153.6c0-84.831-68.769-153.6-153.6-153.6h-153.6c-84.831 0-153.6 68.769-153.6 153.6v153.6c0 84.831 68.769 153.6 153.6 153.6zM230.4 960c127.246 0 230.4-103.154 230.4-230.4s-103.154-230.4-230.4-230.4c-127.246 0-230.4 103.154-230.4 230.4s103.154 230.4 230.4 230.4zM793.6 396.8c127.246 0 230.4-103.154 230.4-230.4s-103.154-230.4-230.4-230.4c-127.246 0-230.4 103.154-230.4 230.4s103.154 230.4 230.4 230.4z" />
<glyph unicode="&#xe916;" glyph-name="fb_facebook_facebook-logo_icon-1" d="M748.488 388.35l28.21 183.922h-176.466v119.354c0 50.318 24.65 99.364 103.69 99.364h80.232v156.582c0 0-72.814 12.428-142.426 12.428-145.34 0-240.33-88.084-240.33-247.55v-140.178h-161.554v-183.922h161.554v-444.62c32.394-5.082 65.596-7.73 99.418-7.73s67.022 2.648 99.416 7.73v444.62h148.256z" />
<glyph unicode="&#xe917;" glyph-name="email" d="M725.333 53.333h-426.667c-155.733 0-245.333 89.6-245.333 245.333v298.667c0 155.733 89.6 245.333 245.333 245.333h426.667c155.733 0 245.333-89.6 245.333-245.333v-298.667c0-155.733-89.6-245.333-245.333-245.333zM298.667 778.667c-122.027 0-181.333-59.307-181.333-181.333v-298.667c0-122.027 59.307-181.333 181.333-181.333h426.667c122.027 0 181.333 59.307 181.333 181.333v298.667c0 122.027-59.307 181.333-181.333 181.333h-426.667zM511.991 410.88c-35.84 0-72.107 11.093-99.841 33.707l-133.547 106.668c-13.653 11.093-16.213 31.147-5.12 44.8s31.147 16.213 44.8 5.12l133.548-106.668c32.427-26.027 87.467-26.027 119.893 0l133.547 106.668c13.653 11.093 34.133 8.96 44.8-5.12 11.093-13.653 8.96-34.133-5.12-44.8l-133.547-106.668c-27.307-22.613-63.573-33.707-99.413-33.707z" />
<glyph unicode="&#xe918;" glyph-name="loginlogout" d="M650.219 9.792h-5.547c-189.44 0-280.745 74.667-296.532 241.92-1.707 17.493 11.093 33.28 29.013 34.987 17.493 1.707 33.28-11.52 34.987-29.013 12.373-133.973 75.519-183.893 232.959-183.893h5.547c173.653 0 235.093 61.44 235.093 235.093v278.188c0 173.653-61.44 235.093-235.093 235.093h-5.547c-158.293 0-221.439-50.773-232.959-187.307-2.133-17.493-16.64-30.72-34.987-29.013-17.92 1.28-30.72 17.067-29.44 34.56 14.507 169.813 106.239 245.76 296.959 245.76h5.547c209.493 0 299.093-89.6 299.093-299.093v-278.188c0-209.493-89.6-299.093-299.093-299.093zM634.88 416h-549.547c-17.493 0-32 14.507-32 32s14.507 32 32 32h549.547c17.493 0 32-14.507 32-32s-14.080-32-32-32zM539.725 273.075c-8.107 0-16.213 2.987-22.613 9.387-12.373 12.373-12.373 32.853 0 45.227l120.32 120.32-120.32 120.318c-12.373 12.373-12.373 32.853 0 45.227s32.853 12.373 45.227 0l142.933-142.932c12.373-12.373 12.373-32.853 0-45.227l-142.933-142.933c-6.4-6.4-14.507-9.387-22.613-9.387z" />
<glyph unicode="&#xe919;" glyph-name="frameuser" d="M518.81 464.213c-1.28 0-2.133 0-3.413 0-2.133 0.427-5.12 0.427-7.68 0-123.735 3.84-217.175 101.12-217.175 221.013 0 122.027 99.413 221.44 221.441 221.44s221.44-99.413 221.44-221.44c-0.427-119.893-94.293-217.173-213.333-221.013-0.427 0-0.853 0-1.28 0zM511.983 842.667c-86.615 0-157.441-70.827-157.441-157.44 0-85.333 66.56-154.027 151.468-157.013 2.133 0.427 8.107 0.427 13.653 0 83.627 3.84 149.333 72.533 149.76 157.013 0 86.613-70.827 157.44-157.44 157.44zM519.236-2.133c-83.627 0-167.68 21.333-231.253 64-59.307 39.253-91.733 93.013-91.733 151.467s32.427 112.64 91.733 152.32c128 84.907 335.36 84.907 462.506 0 58.88-39.253 91.733-93.013 91.733-151.467s-32.427-112.64-91.733-152.32c-64-42.667-147.627-64-231.253-64zM323.397 311.893c-40.96-27.307-63.147-62.293-63.147-98.987 0-36.267 22.613-71.253 63.147-98.133 106.24-71.253 285.44-71.253 391.68 0 40.96 27.307 63.147 62.293 63.147 98.987 0 36.267-22.613 71.253-63.147 98.133-106.24 70.827-285.44 70.827-391.68 0z" />
<glyph unicode="&#xe91a;" glyph-name="Framesearch" d="M490.667 32c-241.067 0-437.333 196.267-437.333 437.333s196.267 437.333 437.333 437.333c241.067 0 437.333-196.267 437.333-437.333s-196.267-437.333-437.333-437.333zM490.667 842.667c-206.080 0-373.333-167.68-373.333-373.333s167.253-373.333 373.333-373.333c206.080 0 373.333 167.68 373.333 373.333s-167.253 373.333-373.333 373.333zM938.645-10.645c-8.107 0-16.213 2.987-22.613 9.387l-85.333 85.333c-12.373 12.373-12.373 32.853 0 45.227s32.853 12.373 45.227 0l85.333-85.333c12.373-12.373 12.373-32.853 0-45.227-6.4-6.4-14.507-9.387-22.613-9.387z" />
<glyph unicode="&#xe91b;" glyph-name="burger_line_list_menu_nav_icon" d="M896 640h-768c-17.673 0-32 14.327-32 32s14.327 32 32 32v0h768c17.673 0 32-14.327 32-32s-14.327-32-32-32v0zM896 416h-768c-17.673 0-32 14.327-32 32s14.327 32 32 32v0h768c17.673 0 32-14.327 32-32s-14.327-32-32-32v0zM896 192h-768c-17.673 0-32 14.327-32 32s14.327 32 32 32v0h768c17.673 0 32-14.327 32-32s-14.327-32-32-32v0z" />
<glyph unicode="&#xe91c;" glyph-name="instagram_icon" d="M509.291 658.399c-126.42 0-231.168-102.942-231.168-231.168s102.942-231.168 231.168-231.168 231.168 104.748 231.168 231.168-104.748 231.168-231.168 231.168zM509.291 279.139c-81.27 0-148.092 66.822-148.092 148.092s66.822 148.092 148.092 148.092 148.092-66.822 148.092-148.092-66.822-148.092-148.092-148.092zM801.862 663.817c0-28.925-23.449-52.374-52.374-52.374s-52.374 23.449-52.374 52.374c0 28.925 23.449 52.374 52.374 52.374s52.374-23.449 52.374-52.374zM884.938 799.266c-46.956 48.762-113.778 74.046-189.63 74.046h-372.035c-157.122 0-261.869-104.748-261.869-261.869v-370.229c0-77.658 25.284-144.48 75.852-193.242 48.762-46.956 113.778-70.434 187.824-70.434h368.423c77.658 0 142.674 25.284 189.63 70.434 48.762 46.956 74.046 113.778 74.046 191.436v372.035c0 75.852-25.284 140.868-72.24 187.824zM877.714 239.407c0-55.986-19.866-101.136-52.374-131.838s-77.658-46.956-131.838-46.956h-368.423c-54.18 0-99.33 16.254-131.838 46.956-32.508 32.508-48.762 77.658-48.762 133.644v370.229c0 54.18 16.254 99.33 48.762 131.838 30.702 30.702 77.658 46.956 131.838 46.956h372.035c54.18 0 99.33-16.254 131.838-48.762 30.702-32.508 48.762-77.658 48.762-130.032v-372.035z" />
</font>
</defs>
</svg>
